<svg width="43" height="42" viewBox="0 0 43 42" fill="none" xmlns="http://www.w3.org/2000/svg">
<path opacity="0.12" d="M21.6264 42.0083C33.0968 42.0083 42.3954 32.7107 42.3954 21.2414C42.3954 9.77224 33.0968 0.474609 21.6264 0.474609C10.156 0.474609 0.857422 9.77224 0.857422 21.2414C0.857422 32.7107 10.156 42.0083 21.6264 42.0083Z" fill="white"/>
<path d="M30.6896 8.15861V13.4872C29.8842 13.4891 29.0784 13.4853 28.273 13.4964C27.9771 13.5001 27.6816 13.5393 27.3858 13.5625C26.0202 13.5941 25.1198 14.3058 24.892 15.588C24.819 16.0002 24.8585 16.4322 24.8463 16.855C24.8467 17.7862 24.8467 18.717 24.8467 19.6482V20.5573H30.3702C30.2519 21.3991 30.1386 22.2045 30.0257 23.0094L30.0272 23.011C30.0071 23.0931 29.9869 23.1756 29.9667 23.2581C29.8302 24.1072 29.6933 24.9562 29.5568 25.8053C29.5146 26.0152 29.4728 26.2247 29.4233 26.4703H24.8468V30.4087C24.8472 31.2304 24.8475 32.0517 24.8479 32.8734C24.8479 34.2696 24.8475 35.6662 24.8472 37.0624V41.6277C23.9752 41.7395 23.0861 41.9633 22.1838 41.9633C22.0948 41.9633 21.8923 41.9597 21.9172 41.9615C20.5503 41.9597 19.1705 41.8075 17.8593 41.5299V26.4498H12.6339C12.6217 26.1821 12.6119 25.9543 12.6016 25.7266V20.5391H17.8596V19.6478C17.8592 18.6896 17.8592 17.7314 17.8592 16.7729C17.904 15.8634 17.9489 14.9538 17.9934 14.044C18.0322 13.9287 18.0847 13.8162 18.1071 13.6976C18.3216 12.555 18.8118 11.5272 19.4696 10.5861C19.7579 10.1736 20.1576 9.83937 20.5067 9.4698C22.0951 8.24887 23.9173 7.73363 25.8925 7.74582C26.8983 7.75188 27.9049 7.83365 28.9084 7.91426C29.4982 7.96125 30.0831 8.07303 30.6896 8.15861Z" fill="white"/>
</svg>
