<svg width="70" height="68" viewBox="0 0 70 68" fill="none" xmlns="http://www.w3.org/2000/svg">
<rect x="6.21124" y="3.84356" width="56.7308" height="56.7308" rx="28.3654" stroke="#129E68" stroke-width="0.961538"/>
<g filter="url(#filter0_d_1149_5694)">
<rect x="6.69238" y="4.32422" width="55.7692" height="55.7692" rx="27.8846" fill="white" fill-opacity="0.01" shape-rendering="crispEdges"/>
<g clip-path="url(#clip0_1149_5694)">
<path d="M46.1882 30.1466C46.1882 25.9663 43.4056 22.9292 39.5424 22.9292C37.4743 22.9292 36.3624 23.6809 34.5812 25.4097C32.7908 23.6809 31.6778 22.9141 29.6178 22.9141C25.7546 22.9141 22.958 25.9581 22.958 30.1536C22.958 31.9196 23.5819 33.5811 24.7391 34.8893L34.0619 43.4371C34.3477 43.6927 34.8136 43.6927 35.0913 43.4371L43.5113 35.7921L44.0225 35.3262L44.2107 35.1147L44.4059 34.9126C45.5638 33.601 46.2005 31.9102 46.1952 30.1606" fill="#199A6A"/>
</g>
</g>
<defs>
<filter id="filter0_d_1149_5694" x="0.923152" y="0.478065" width="68.2699" height="67.3075" filterUnits="userSpaceOnUse" color-interpolation-filters="sRGB">
<feFlood flood-opacity="0" result="BackgroundImageFix"/>
<feColorMatrix in="SourceAlpha" type="matrix" values="0 0 0 0 0 0 0 0 0 0 0 0 0 0 0 0 0 0 127 0" result="hardAlpha"/>
<feOffset dy="1.92308"/>
<feGaussianBlur stdDeviation="2.88462"/>
<feComposite in2="hardAlpha" operator="out"/>
<feColorMatrix type="matrix" values="0 0 0 0 0.396078 0 0 0 0 0.431373 0 0 0 0 0.482353 0 0 0 0.12 0"/>
<feBlend mode="normal" in2="BackgroundImageFix" result="effect1_dropShadow_1149_5694"/>
<feBlend mode="normal" in="SourceGraphic" in2="effect1_dropShadow_1149_5694" result="shape"/>
</filter>
<clipPath id="clip0_1149_5694">
<rect width="27.8846" height="27.8846" fill="white" transform="translate(20.6348 18.2666)"/>
</clipPath>
</defs>
</svg>
