<svg width="58" height="77" viewBox="0 0 58 77" fill="none" xmlns="http://www.w3.org/2000/svg">
<path fill-rule="evenodd" clip-rule="evenodd" d="M14.7219 23.2963L14.7541 23.0809C14.7767 22.9338 14.801 22.7744 14.8054 22.7421C15.5156 16.9309 21.5564 12.5487 28.8472 12.5487L29.1384 12.5504C35.5399 12.5504 40.0968 15.2262 43.0672 20.7291C43.3853 21.3175 44.119 21.5381 44.7041 21.2159C45.29 20.8955 45.5064 20.1565 45.1883 19.5672C41.8032 13.2982 36.4031 10.1199 29.1488 10.1199L28.8576 10.1172C20.1994 10.1172 13.2824 15.3023 12.4105 22.4339L12.3687 22.707C12.3479 22.8445 12.3287 22.9723 12.3261 22.9898C12.2488 23.65 12.7138 24.2463 13.3693 24.3338C13.4223 24.34 13.4745 24.3435 13.5258 24.3435C14.1178 24.3435 14.635 23.9013 14.7219 23.2963ZM47.95 52.9352C47.95 41.8067 40.528 39.0609 30.0407 36.3974L28.7907 36.0691C25.8759 35.289 20.9974 33.9844 17.8436 30.9882C17.3585 30.5285 16.5944 30.5521 16.1371 31.0389C15.6799 31.5275 15.7025 32.2971 16.1867 32.7577C19.7856 36.1768 25.0353 37.5803 28.1709 38.4182L29.4505 38.7545C40.3845 41.5326 45.536 43.8371 45.536 52.9352C45.536 59.994 38.7928 64.9235 29.1384 64.9235C21.9641 64.9235 15.799 61.3266 13.0477 55.5365C12.7599 54.9306 12.0392 54.6732 11.4377 54.9639C10.8361 55.2537 10.5823 55.9795 10.87 56.5854C14.0265 63.2284 21.0261 67.3549 29.1384 67.3549C40.2141 67.3549 47.95 61.4256 47.95 52.9352ZM38.719 21.1205C39.2136 20.6713 39.2535 19.9026 38.8076 19.4035C36.637 16.9773 33.99 15.7401 30.4771 15.5107C29.8191 15.4713 29.2375 15.9739 29.194 16.6446C29.1506 17.3153 29.6556 17.8932 30.3206 17.9369C33.165 18.1225 35.2922 19.1058 37.0142 21.0312C37.2516 21.2982 37.581 21.4331 37.9114 21.4331C38.1991 21.4331 38.4877 21.3306 38.719 21.1205ZM50.9352 61.6296C52.5182 58.9941 53.3206 56.0811 53.3206 52.9693C53.3206 37.4516 40.5288 34.2006 31.1891 31.8278L30.2363 31.5792C24.9918 30.1713 20.2846 28.5217 20.2837 23.8847C20.3037 23.0109 20.5054 22.2071 20.8835 21.4926C21.1973 20.9007 20.9748 20.1644 20.3863 19.8474C19.7969 19.5331 19.0675 19.7555 18.7537 20.3491C18.1965 21.3998 17.8992 22.5713 17.8697 23.8567C17.8697 30.7763 25.2222 32.7489 29.6147 33.9283L30.5979 34.1849C40.1168 36.6041 50.9065 39.3455 50.9065 52.9693C50.9065 55.6302 50.2215 58.1212 48.8698 60.3714C48.5246 60.9458 48.7072 61.6926 49.2774 62.0402C49.4722 62.1593 49.6877 62.2162 49.9016 62.2162C50.3093 62.2162 50.7083 62.0078 50.9352 61.6296ZM43.2262 68.7663C43.8148 68.4502 44.0356 67.713 43.7209 67.1211C43.4062 66.5293 42.676 66.306 42.0875 66.6229C38.4303 68.5938 33.9526 69.6367 29.1384 69.6367C19.7586 69.6367 11.2456 64.589 7.95269 57.0784C7.78839 56.7045 7.68232 56.314 7.63625 55.9191C7.55801 55.2511 6.95645 54.7704 6.29666 54.8535C5.63425 54.9315 5.16048 55.5356 5.23872 56.2019C5.31261 56.8385 5.48299 57.4636 5.74465 58.0599C9.41658 66.4382 18.8181 72.0672 29.1384 72.0672C34.349 72.0672 39.2205 70.9264 43.2262 68.7663ZM40.7887 58.5861C42.3457 57.0425 43.1689 55.139 43.1689 53.0831C43.1689 51.3933 42.7742 49.8497 41.9945 48.4969C41.5798 47.7763 41.0461 47.0925 40.4089 46.4647C39.9316 45.9963 39.1675 46.0042 38.7015 46.484C38.2356 46.9647 38.2443 47.7343 38.7207 48.2036C39.2023 48.6773 39.6013 49.1869 39.9064 49.7157C40.4775 50.7077 40.7548 51.8092 40.7548 53.0831C40.7548 54.4928 40.1959 55.7615 39.0953 56.8533C37.0707 58.861 33.4649 60.0264 29.4687 59.959C27.0973 59.9248 24.8336 59.3583 22.9212 58.3225C21.5329 57.5704 20.6358 56.504 20.042 55.7983C19.9282 55.6634 19.8256 55.5417 19.7334 55.4375C19.291 54.935 18.5286 54.8912 18.0287 55.3377C17.5315 55.7843 17.4872 56.5521 17.9305 57.0538C18.0105 57.1458 18.1009 57.2526 18.2 57.3708C18.8685 58.1649 19.9864 59.4932 21.7772 60.4633C24.0286 61.6839 26.6765 62.3502 29.4322 62.3904C29.5461 62.3922 29.6582 62.3931 29.7712 62.3931C34.2742 62.3931 38.3738 60.9817 40.7887 58.5861ZM30.4441 42.86C30.6075 42.2095 30.2154 41.5475 29.5687 41.3838C28.6924 41.1614 27.7527 40.9425 26.7756 40.735C14.6124 38.1538 9.18882 33.0055 9.18882 24.0396C9.18882 14.1991 17.2472 7.58596 29.2418 7.58596C36.4214 7.58596 45.4734 11.6337 48.3821 20.5199C48.5899 21.1573 49.274 21.5049 49.906 21.2947C50.5388 21.0837 50.883 20.3973 50.6744 19.759C47.3902 9.72497 37.262 5.15537 29.2418 5.15537C15.8033 5.15537 6.7739 12.7448 6.7739 24.0396C6.7739 37.4271 17.9053 41.3383 26.2775 43.1139C27.2233 43.3153 28.1317 43.5263 28.9784 43.7408C29.0775 43.7662 29.1766 43.7785 29.2749 43.7785C29.8147 43.7785 30.3059 43.4116 30.4441 42.86ZM58 52.9693C58 45.5533 56.2918 40.6851 52.46 37.1846C51.9671 36.7337 51.2029 36.7722 50.7553 37.2677C50.3076 37.7651 50.345 38.5338 50.8387 38.9856C54.1655 42.0256 55.586 46.2082 55.586 52.9693C55.586 65.3569 44.4633 74.349 29.1384 74.349C18.719 74.349 8.67768 68.6061 4.15036 60.0597L4.02345 59.8233C3.67486 59.1841 2.94985 57.8532 2.36307 55.8946C2.17009 55.2511 1.49639 54.8859 0.859197 55.0821C0.220261 55.2764 -0.140505 55.9541 0.0516101 56.5968C0.711409 58.7997 1.51897 60.2821 1.90755 60.993L2.01969 61.2032C6.95558 70.5201 17.8531 76.7804 29.1384 76.7804C45.862 76.7804 58 66.7674 58 52.9693ZM26.3714 47.307C26.5505 46.66 26.1758 45.9902 25.5334 45.8089C19.7873 44.1909 7.83099 40.8243 4.64935 29.9278C4.46158 29.2843 3.7896 28.9139 3.15066 29.1057C2.51086 29.2948 2.14489 29.9708 2.33353 30.6152C5.89331 42.8031 19.2006 46.5505 24.8832 48.1511C24.9918 48.1817 25.1014 48.1966 25.2091 48.1966C25.7368 48.1966 26.2219 47.8446 26.3714 47.307ZM4.08864 20.66C5.75335 9.96663 15.5912 2.86927 28.6533 2.86927C28.842 2.86927 29.0332 2.87102 29.2236 2.87365C29.9103 2.86664 30.4389 2.34831 30.4494 1.67674C30.4597 1.00606 29.9277 0.453572 29.261 0.443065C14.6645 0.196154 3.58705 8.1866 1.70328 20.2826C1.59983 20.9471 2.05013 21.5688 2.70819 21.6721C2.77252 21.6835 2.83511 21.6879 2.8977 21.6879C3.48187 21.6879 3.99476 21.2597 4.08864 20.66ZM54.7706 21.1389C54.1334 21.1389 53.6005 20.6363 53.5657 19.9875C53.3849 18.4001 50.0042 8.7347 39.4431 4.71409C38.8198 4.47594 38.5051 3.7746 38.7407 3.14595C38.9762 2.51904 39.6726 2.20208 40.2967 2.43848C52.553 7.10614 55.8963 18.3266 55.9772 19.8588C56.0128 20.5286 55.5016 21.1012 54.8357 21.1371C54.814 21.1389 54.7923 21.1389 54.7706 21.1389Z" fill="white"/>
</svg>
