<svg width="42" height="43" viewBox="0 0 42 43" fill="none" xmlns="http://www.w3.org/2000/svg">
<path opacity="0.13" d="M20.9811 42.0105C32.4521 42.0105 41.7512 32.7124 41.7512 21.2426C41.7512 9.77274 32.4521 0.474609 20.9811 0.474609C9.51004 0.474609 0.210938 9.77274 0.210938 21.2426C0.210938 32.7124 9.51004 42.0105 20.9811 42.0105Z" fill="white"/>
<path d="M20.9831 11.2082C24.2536 11.2082 24.6409 11.2207 25.9325 11.2796C27.1268 11.3341 27.7753 11.5335 28.2069 11.7013C28.7787 11.9235 29.1867 12.1889 29.6153 12.6174C30.0439 13.046 30.3093 13.454 30.5316 14.0256C30.6993 14.4572 30.8988 15.1057 30.9533 16.2998C31.0122 17.5912 31.0247 17.9786 31.0247 21.2488C31.0247 24.519 31.0122 24.9063 30.9533 26.1978C30.8988 27.3918 30.6993 28.0404 30.5316 28.4719C30.3093 29.0436 30.0439 29.4516 29.6153 29.8802C29.1867 30.3087 28.7787 30.5742 28.2069 30.7963C27.7753 30.964 27.1267 31.1635 25.9325 31.218C24.6411 31.2769 24.2538 31.2894 20.9831 31.2894C17.7123 31.2894 17.3249 31.2769 16.0336 31.218C14.8393 31.1635 14.1908 30.964 13.7592 30.7963C13.1875 30.5741 12.7794 30.3087 12.3508 29.8802C11.9222 29.4516 11.6568 29.0436 11.4345 28.4719C11.2668 28.0404 11.0673 27.3918 11.0128 26.1978C10.9539 24.9064 10.9414 24.519 10.9414 21.2488C10.9414 17.9786 10.9539 17.5913 11.0128 16.2998C11.0673 15.1057 11.2668 14.4572 11.4345 14.0256C11.6568 13.454 11.9222 13.046 12.3508 12.6174C12.7794 12.1889 13.1874 11.9234 13.7592 11.7013C14.1908 11.5335 14.8394 11.3341 16.0336 11.2796C17.3251 11.2207 17.7125 11.2082 20.9831 11.2082ZM20.9831 9.00146C17.6565 9.00146 17.2394 9.01554 15.9329 9.07517C14.6292 9.13465 13.7389 9.34168 12.9597 9.64444C12.1542 9.95744 11.4712 10.3762 10.7902 11.0571C10.1093 11.738 9.69048 12.421 9.37743 13.2263C9.07463 14.0054 8.86757 14.8956 8.80809 16.1993C8.7485 17.5056 8.73438 17.9226 8.73438 21.2489C8.73438 24.5751 8.74845 24.9921 8.80809 26.2985C8.86757 27.6021 9.07463 28.4923 9.37743 29.2714C9.69043 30.0768 10.1093 30.7598 10.7902 31.4407C11.4712 32.1215 12.1543 32.5403 12.9597 32.8533C13.7388 33.1561 14.6292 33.3631 15.9329 33.4226C17.2394 33.4822 17.6565 33.4963 20.9831 33.4963C24.3096 33.4963 24.7267 33.4822 26.0332 33.4226C27.3369 33.3631 28.2272 33.1561 29.0064 32.8533C29.8119 32.5403 30.4949 32.1215 31.1759 31.4407C31.8569 30.7598 32.2757 30.0768 32.5887 29.2714C32.8915 28.4923 33.0985 27.6021 33.158 26.2985C33.2176 24.9921 33.2317 24.5751 33.2317 21.2489C33.2317 17.9227 33.2176 17.5056 33.158 16.1993C33.0985 14.8957 32.8915 14.0054 32.5887 13.2263C32.2757 12.4209 31.8568 11.738 31.1759 11.0571C30.495 10.3762 29.8119 9.95744 29.0064 9.64444C28.2273 9.34168 27.3369 9.13465 26.0332 9.07517C24.7267 9.01559 24.3095 9.00146 20.9831 9.00146Z" fill="white"/>
<path d="M20.9822 14.9521C17.5084 14.9521 14.6924 17.7679 14.6924 21.2413C14.6924 24.7147 17.5084 27.5305 20.9822 27.5305C24.4559 27.5305 27.272 24.7148 27.272 21.2413C27.272 17.7679 24.4559 14.9521 20.9822 14.9521ZM20.9822 25.3238C18.7273 25.3238 16.8993 23.496 16.8993 21.2413C16.8993 18.9866 18.7273 17.1588 20.9822 17.1588C23.2371 17.1588 25.0651 18.9866 25.0651 21.2413C25.065 23.496 23.2371 25.3238 20.9822 25.3238Z" fill="white"/>
<path d="M27.5343 16.1756C28.3461 16.1756 29.0041 15.5176 29.0041 14.706C29.0041 13.8943 28.3461 13.2363 27.5343 13.2363C26.7225 13.2363 26.0645 13.8943 26.0645 14.706C26.0645 15.5176 26.7225 16.1756 27.5343 16.1756Z" fill="white"/>
</svg>
