<svg width="43" height="43" viewBox="0 0 43 43" fill="none" xmlns="http://www.w3.org/2000/svg">
<g clip-path="url(#clip0_1132_5414)">
<path opacity="0.13" d="M21.5261 42.4878C33.1326 42.4878 42.5415 33.0802 42.5415 21.4753C42.5415 9.87049 33.1326 0.462891 21.5261 0.462891C9.91965 0.462891 0.510742 9.87049 0.510742 21.4753C0.510742 33.0802 9.91965 42.4878 21.5261 42.4878Z" fill="white"/>
<path d="M16.8284 13.8383C16.829 14.4061 16.661 14.9614 16.3458 15.4337C16.0307 15.9061 15.5824 16.2744 15.0578 16.4919C14.5332 16.7095 13.9559 16.7665 13.3989 16.6559C12.8418 16.5453 12.3302 16.2719 11.9286 15.8703C11.527 15.4688 11.2536 14.9572 11.1429 14.4003C11.0322 13.8433 11.0893 13.266 11.3069 12.7415C11.5245 12.217 11.8928 11.7688 12.3652 11.4537C12.8377 11.1386 13.393 10.9706 13.9609 10.9712C14.7212 10.9719 15.4501 11.2742 15.9877 11.8118C16.5253 12.3493 16.8277 13.0781 16.8284 13.8383Z" fill="white"/>
<path d="M15.4773 17.9116H12.4577C12.0652 17.9116 11.7471 18.2297 11.7471 18.6222V31.2822C11.7471 31.6746 12.0652 31.9927 12.4577 31.9927H15.4773C15.8698 31.9927 16.1879 31.6746 16.1879 31.2822V18.6222C16.1879 18.2297 15.8698 17.9116 15.4773 17.9116Z" fill="white"/>
<path d="M31.9659 25.1876V31.3171C31.9659 31.4902 31.8971 31.6561 31.7748 31.7785C31.6524 31.9009 31.4864 31.9696 31.3133 31.9696H28.0725C27.8995 31.9696 27.7335 31.9009 27.6111 31.7785C27.4887 31.6561 27.4199 31.4902 27.4199 31.3171V25.3784C27.4199 24.4909 27.6771 21.5076 25.1027 21.5076C23.1063 21.5076 22.6998 23.5591 22.6141 24.4798V31.331C22.6105 31.5007 22.5409 31.6623 22.4201 31.7815C22.2993 31.9007 22.1368 31.9682 21.967 31.9696H18.8313C18.7455 31.97 18.6605 31.9534 18.5811 31.9207C18.5018 31.888 18.4297 31.84 18.369 31.7793C18.3084 31.7187 18.2603 31.6466 18.2276 31.5673C18.195 31.4879 18.1784 31.4029 18.1787 31.3171V18.5438C18.1784 18.4579 18.195 18.3727 18.2276 18.2932C18.2602 18.2137 18.3082 18.1415 18.3689 18.0806C18.4295 18.0197 18.5016 17.9714 18.5809 17.9384C18.6603 17.9055 18.7454 17.8885 18.8313 17.8885H21.967C22.054 17.887 22.1404 17.9029 22.2212 17.9352C22.302 17.9675 22.3755 18.0155 22.4376 18.0765C22.4996 18.1375 22.5489 18.2102 22.5825 18.2904C22.6161 18.3707 22.6334 18.4568 22.6334 18.5438V19.6497C23.3745 18.5438 24.475 17.6812 26.8171 17.6812C31.9963 17.6784 31.9659 22.5251 31.9659 25.1876Z" fill="white"/>
</g>
<defs>
<clipPath id="clip0_1132_5414">
<rect width="42.0308" height="42.0249" fill="white" transform="translate(0.500977 0.474609)"/>
</clipPath>
</defs>
</svg>
