<svg width="43" height="43" viewBox="0 0 43 43" fill="none" xmlns="http://www.w3.org/2000/svg">
<path opacity="0.13" d="M21.2985 42.2562C32.7695 42.2562 42.0686 32.958 42.0686 21.4882C42.0686 10.0183 32.7695 0.720215 21.2985 0.720215C9.82743 0.720215 0.52832 10.0183 0.52832 21.4882C0.52832 32.958 9.82743 42.2562 21.2985 42.2562Z" fill="white"/>
<path d="M21.3036 42.4995C19.8779 42.4995 18.4531 42.3559 17.0687 42.0726C15.7193 41.7965 14.392 41.3845 13.1237 40.8482C11.8785 40.3215 10.6774 39.6697 9.55402 38.9107C8.4413 38.1591 7.39497 37.2958 6.44408 36.3451C5.4932 35.3943 4.62991 34.3481 3.87817 33.2355C3.11918 32.1122 2.46727 30.9112 1.9406 29.6661C1.40413 28.3979 0.992102 27.0708 0.716009 25.7215C0.432704 24.3373 0.289062 22.9126 0.289062 21.487C0.289062 20.0615 0.432704 18.6368 0.716009 17.2526C0.992102 15.9033 1.40413 14.5762 1.9406 13.308C2.46727 12.0629 3.11918 10.862 3.87817 9.73864C4.62991 8.62602 5.4932 7.57984 6.44408 6.62904C7.39497 5.67824 8.4413 4.815 9.55402 4.06338C10.6775 3.30449 11.8785 2.65262 13.1237 2.12597C14.3921 1.58957 15.7193 1.1776 17.0687 0.901496C18.4532 0.618231 19.878 0.474609 21.3036 0.474609C22.7293 0.474609 24.1541 0.618231 25.5385 0.901496C26.8879 1.1776 28.2152 1.58957 29.4835 2.12597C30.7287 2.65262 31.9298 3.30444 33.0532 4.06338C34.1659 4.81505 35.2123 5.67829 36.1632 6.62904C37.1141 7.57984 37.9773 8.62607 38.7291 9.73864C39.4881 10.862 40.14 12.0629 40.6667 13.308C41.2031 14.5762 41.6152 15.9033 41.8912 17.2526C42.1745 18.6369 42.3182 20.0616 42.3182 21.487C42.3182 22.9126 42.1745 24.3373 41.8912 25.7215C41.6151 27.0708 41.2031 28.3979 40.6667 29.6661C40.14 30.9113 39.4881 32.1122 38.7291 33.2355C37.9773 34.3481 37.1141 35.3943 36.1632 36.3451C35.2123 37.2959 34.166 38.1591 33.0532 38.9107C31.9298 39.6696 30.7287 40.3215 29.4835 40.8482C28.2152 41.3845 26.8879 41.7965 25.5385 42.0726C24.1541 42.3559 22.7293 42.4995 21.3036 42.4995ZM21.3036 0.963563C9.9858 0.963563 0.778082 10.1703 0.778082 21.487C0.778082 32.8037 9.9858 42.0105 21.3036 42.0105C32.6215 42.0105 41.8292 32.8037 41.8292 21.487C41.8292 10.1703 32.6215 0.963563 21.3036 0.963563Z" fill="#151515"/>
<path d="M12.2207 32.9381C18.3073 25.3158 24.3939 17.6935 30.4805 10.0713L12.2207 32.9381Z" fill="#151515"/>
<path d="M12.7513 33.3452L11.6982 32.5045L26.8951 13.4734L29.9581 9.6377L31.0111 10.4784L27.9482 14.3141L12.7513 33.3452Z" fill="white"/>
<path d="M9.30078 10.2349C11.0736 10.2349 12.8464 10.2349 14.6192 10.2349C20.8535 17.7094 27.0878 25.1839 33.3222 32.6585C31.4608 32.688 29.5993 32.7176 27.7379 32.7471C21.5922 25.243 15.4465 17.739 9.30078 10.2349Z" fill="white"/>
<path d="M27.4178 33.4223L7.87305 9.55762H14.9294L34.7375 33.3061L27.4178 33.4223ZM10.7182 10.905L28.0476 32.0648L31.8965 32.0037L14.2986 10.905H10.7182Z" fill="white"/>
</svg>
