<svg width="42" height="43" viewBox="0 0 42 43" fill="none" xmlns="http://www.w3.org/2000/svg">
<path opacity="0.13" d="M21.1949 42.0104C32.6659 42.0104 41.965 32.7123 41.965 21.2425C41.965 9.77272 32.6659 0.474609 21.1949 0.474609C9.7239 0.474609 0.424805 9.77272 0.424805 21.2425C0.424805 32.7123 9.7239 42.0104 21.1949 42.0104Z" fill="white"/>
<path d="M34.1697 14.7322C33.8579 13.5659 32.9392 12.6473 31.7728 12.3355C29.6586 11.769 21.1806 11.769 21.1806 11.769C21.1806 11.769 12.7027 11.769 10.5884 12.3355C9.42192 12.6473 8.50327 13.5659 8.19151 14.7322C7.625 16.8463 7.625 21.257 7.625 21.257C7.625 21.257 7.625 25.6678 8.19151 27.7819C8.50327 28.9483 9.42197 29.8668 10.5884 30.1786C12.7027 30.7451 21.1806 30.7451 21.1806 30.7451C21.1806 30.7451 29.6586 30.7451 31.7728 30.1786C32.9393 29.8668 33.8579 28.9483 34.1697 27.7819C34.7363 25.6678 34.7363 21.257 34.7363 21.257C34.7363 21.257 34.7363 16.8463 34.1697 14.7322ZM18.4695 25.3233V17.1907L25.5129 21.2571L18.4695 25.3233Z" fill="white"/>
</svg>
